<svg id="vector" xmlns="http://www.w3.org/2000/svg" width="66" height="66" viewBox="0 0 67 67"><path fill="#000" d="M33.078,61.393c-0.136,-0.04 -0.268,-0.112 -0.404,-0.112 -2.009,0 -3.971,-0.354 -5.871,-0.947 -1.499,-0.467 -2.939,-1.115 -4.395,-1.708 -0.5,-0.205 -0.966,-0.496 -1.456,-0.731 -0.089,-0.043 -0.222,-0.033 -0.321,-0.003 -0.904,0.294 -1.754,-0.252 -1.857,-1.188 -0.013,-0.109 -0.109,-0.228 -0.202,-0.301 -1.039,-0.87 -2.092,-1.727 -3.127,-2.601 -0.255,-0.215 -0.467,-0.483 -0.721,-0.705 -0.086,-0.076 -0.235,-0.093 -0.357,-0.106 -0.553,-0.05 -1.079,-0.457 -1.046,-1.003 0.046,-0.711 -0.41,-1.115 -0.745,-1.612 -0.45,-0.665 -0.946,-1.307 -1.327,-2.012 -1.135,-2.111 -2.009,-4.332 -2.601,-6.658 -0.03,-0.123 -0.122,-0.271 -0.228,-0.321 -0.824,-0.397 -1.062,-1.238 -0.496,-1.989 0.202,-0.268 0.218,-0.51 0.202,-0.801 -0.046,-0.765 -0.069,-1.532 -0.113,-2.297 -0.007,-0.126 -0.036,-0.261 -0.099,-0.367 -0.361,-0.606 -0.338,-1.145 0.142,-1.668 0.242,-0.265 0.351,-0.539 0.324,-0.884 -0.007,-0.116 0.02,-0.232 0.04,-0.347 0.053,-0.301 0.083,-0.572 -0.156,-0.844 -0.268,-0.308 -0.248,-0.884 0.083,-1.069 0.47,-0.265 0.443,-0.718 0.576,-1.112 0.109,-0.328 0.208,-0.665 0.268,-1.006 0.023,-0.126 -0.036,-0.338 -0.129,-0.4 -0.897,-0.596 -1.82,-1.148 -2.714,-1.751 -0.635,-0.427 -1.294,-0.847 -1.83,-1.383 -0.887,-0.887 -1.724,-1.833 -2.502,-2.816 -0.526,-0.665 -0.874,-1.459 -1.032,-2.313v-0.556c0.126,-0.771 0.533,-1.383 1.046,-1.959 0.172,-0.195 0.189,-0.553 0.218,-0.841 0.053,-0.47 0.02,-0.953 0.089,-1.42 0.169,-1.135 1.052,-2.055 2.171,-2.316 0.192,-0.046 0.384,-0.103 0.582,-0.123 0.526,-0.053 0.893,-0.328 1.208,-0.741 0.668,-0.874 1.536,-1.363 2.667,-1.271 0.655,0.053 1.264,0.291 1.708,0.754 0.625,0.655 1.181,1.38 1.737,2.098 0.331,0.427 0.629,0.887 0.903,1.354 0.275,0.463 0.503,0.956 0.745,1.42 2.065,-2.257 4.497,-3.508 7.681,-2.809 0,-0.096 -0.003,-0.156 0,-0.218 0.036,-0.907 0.844,-1.459 1.638,-1.016 0.457,0.255 0.751,0.026 1.109,-0.066 0.536,-0.139 1.062,-0.308 1.658,-0.483 -0.003,0.01 0.013,-0.063 0.033,-0.136 0.232,-0.963 1.082,-1.264 1.883,-0.685 0.122,0.089 0.318,0.112 0.473,0.106 0.271,-0.01 0.539,-0.069 0.841,-0.112 0.06,-0.503 0.328,-0.877 0.854,-0.98 0.549,-0.106 0.973,0.132 1.314,0.559 0.066,0.083 0.215,0.136 0.328,0.136 0.94,0.01 1.88,0.013 2.819,-0.003 0.119,-0.003 0.268,-0.083 0.344,-0.179 0.702,-0.844 1.711,-0.698 2.101,0.311 0.023,0.06 0.05,0.132 0.096,0.166 0.232,0.162 1.099,0.106 1.34,-0.079 0.606,-0.46 1.463,-0.202 1.724,0.52 0.05,0.136 0.076,0.278 0.096,0.361 0.761,0.242 1.492,0.477 2.227,0.705 0.076,0.023 0.182,0.033 0.252,0 1.165,-0.563 1.85,-0.199 1.956,1.086 3.147,-0.718 5.566,0.576 7.648,2.766 0.324,-0.589 0.629,-1.228 1.013,-1.814 0.523,-0.801 1.072,-1.588 1.668,-2.333 0.599,-0.748 1.35,-1.314 2.346,-1.426 1.076,-0.122 1.966,0.288 2.611,1.118 0.43,0.553 0.93,0.867 1.615,0.943 1.684,0.189 2.558,1.714 2.561,3.051 0,0.225 -0.003,0.45 -0.003,0.675 0.003,0.453 0.106,0.854 0.447,1.201 0.854,0.877 1.003,1.926 0.586,3.048 -0.347,0.933 -0.887,1.757 -1.582,2.475 -0.288,0.298 -0.516,0.662 -0.811,0.953 -0.513,0.506 -1.016,1.042 -1.598,1.456 -1.258,0.887 -2.571,1.701 -3.852,2.558 -0.093,0.063 -0.162,0.262 -0.136,0.374 0.126,0.566 0.281,1.125 0.444,1.681 0.03,0.106 0.126,0.215 0.218,0.278 0.493,0.338 0.592,0.854 0.235,1.334 -0.033,0.043 -0.079,0.073 -0.103,0.119 -0.116,0.212 0.046,1.522 0.208,1.708 0.652,0.751 0.688,1.042 0.248,1.91 -0.04,0.076 -0.05,0.175 -0.053,0.265 -0.043,0.831 -0.089,1.665 -0.109,2.495 -0.003,0.189 0.069,0.404 0.172,0.566 0.268,0.427 0.377,0.9 0.261,1.363 -0.06,0.238 -0.324,0.486 -0.559,0.602 -0.255,0.126 -0.361,0.275 -0.447,0.53 -0.493,1.476 -0.93,2.978 -1.536,4.408 -0.516,1.221 -1.214,2.369 -1.876,3.524 -0.268,0.47 -0.662,0.864 -0.979,1.307 -0.099,0.139 -0.185,0.321 -0.189,0.486 -0.017,0.96 -0.288,1.291 -1.241,1.443 -0.06,0.01 -0.132,0.03 -0.172,0.073 -1.185,1.277 -2.528,2.366 -3.938,3.382 -0.079,0.056 -0.139,0.189 -0.146,0.288 -0.06,0.824 -0.947,1.436 -1.737,1.205 -0.162,-0.046 -0.381,-0.033 -0.536,0.036 -1.238,0.546 -2.442,1.185 -3.706,1.658 -2.512,0.94 -5.09,1.622 -7.803,1.648 -0.175,0.003 -0.347,0.073 -0.523,0.113 -0.129,0.007 -0.261,0.007 -0.394,0.007ZM10.952,28.933c-0.364,0.172 -0.41,0.576 -0.496,0.917 -0.136,0.539 -0.185,1.099 -0.281,1.645 -0.142,0.804 -0.344,1.598 -0.43,2.409 -0.089,0.821 0.02,1.671 -0.116,2.482 -0.175,1.056 0.569,2.022 0.212,3.068 -0.007,0.017 0.03,0.043 0.033,0.069 0.113,0.586 0.192,1.178 0.338,1.754 0.294,1.161 0.572,2.333 0.953,3.465 0.281,0.84 0.708,1.635 1.076,2.442 0.738,1.622 1.9,2.945 3.071,4.256 0.304,0.341 0.692,0.612 0.956,0.98 0.765,1.069 1.78,1.87 2.833,2.594 1.264,0.867 2.614,1.628 3.971,2.35 1.443,0.768 2.982,1.304 4.626,1.489 0.761,0.086 1.516,0.225 2.28,0.308 0.493,0.056 0.996,0.083 1.492,0.076 0.629,-0.01 1.258,-0.096 1.886,-0.106 0.754,-0.013 1.512,0.069 2.263,0.026 1.079,-0.063 2.158,-0.172 3.23,-0.318 0.741,-0.099 1.492,-0.222 2.197,-0.46 1.876,-0.635 3.624,-1.542 5.301,-2.611 1.588,-1.013 3.005,-2.204 4.256,-3.604 0.576,-0.645 1.152,-1.287 1.708,-1.946 0.437,-0.516 0.917,-1.019 1.241,-1.602 0.612,-1.105 1.125,-2.26 1.674,-3.399 0.096,-0.199 0.192,-0.4 0.248,-0.612 0.324,-1.198 0.662,-2.389 0.937,-3.601 0.146,-0.632 0.218,-1.294 0.228,-1.942 0.003,-0.328 -0.109,-0.632 0.136,-0.93 0.096,-0.116 0.129,-0.318 0.129,-0.48 -0.016,-1.238 -0.026,-2.479 -0.083,-3.716 -0.023,-0.543 -0.136,-1.082 -0.228,-1.618 -0.063,-0.357 -0.225,-0.705 -0.238,-1.062 -0.02,-0.715 -0.208,-1.38 -0.477,-2.032 -0.093,-0.232 -0.222,-0.347 -0.483,-0.199 -0.238,0.132 -0.486,0.245 -0.741,0.331 -0.321,0.109 -0.778,-0.146 -0.897,-0.467 -0.132,-0.367 0.046,-0.748 0.397,-0.917 0.394,-0.189 0.778,-0.407 1.165,-0.612 0.516,-0.275 0.973,-0.745 1.648,-0.46 0.036,0.017 0.109,-0.05 0.162,-0.079 0.275,-0.169 0.563,-0.324 0.824,-0.513 1.357,-0.976 2.73,-1.936 4.054,-2.962 0.569,-0.44 1.095,-0.973 1.205,-1.774 0.026,-0.182 0.222,-0.404 0.397,-0.486 0.301,-0.142 0.291,-0.344 0.208,-0.579 -0.05,-0.142 -0.146,-0.268 -0.235,-0.394 -0.506,-0.698 -0.51,-1.532 -0.655,-2.333 -0.129,-0.715 -0.278,-1.43 -0.47,-2.128 -0.132,-0.486 -0.599,-0.824 -0.947,-0.808 -0.308,0.017 -0.615,0.02 -0.923,0 -0.857,-0.056 -1.509,-0.48 -2.025,-1.148 -0.387,-0.496 -1.198,-0.725 -1.648,-0.38 -0.586,0.447 -1.175,0.927 -1.638,1.492 -0.804,0.986 -1.344,2.135 -1.807,3.323 -0.172,0.44 -0.45,0.85 -0.738,1.228 -0.189,0.248 -0.635,0.228 -0.877,-0.023 -0.199,-0.208 -0.357,-0.463 -0.199,-0.807 0.063,-0.132 0.05,-0.377 -0.033,-0.49 -0.338,-0.44 -0.678,-0.89 -1.092,-1.254 -0.93,-0.814 -2.009,-1.373 -3.233,-1.612 -0.311,-0.06 -0.642,-0.056 -0.963,-0.043 -0.735,0.033 -1.406,0.298 -2.088,0.553 -0.533,0.199 -1.036,-0.093 -1.046,-0.645 -0.007,-0.357 -0.212,-0.417 -0.414,-0.536 -0.778,-0.467 -1.635,-0.715 -2.512,-0.9 -1.426,-0.305 -2.853,-0.655 -4.328,-0.582 -0.367,0.02 -0.675,-0.053 -0.884,-0.387 -0.033,-0.05 -0.123,-0.086 -0.189,-0.089 -0.523,-0.033 -1.049,-0.076 -1.572,-0.076 -0.443,0 -0.89,0.063 -1.334,0.069 -0.255,0.003 -0.453,0.03 -0.639,0.258 -0.109,0.136 -0.361,0.202 -0.553,0.215 -0.45,0.033 -0.91,-0.036 -1.354,0.026 -0.897,0.122 -1.794,0.281 -2.681,0.467 -1.039,0.215 -2.058,0.496 -3.005,1.009 -0.291,0.159 -0.437,0.334 -0.437,0.665 0.003,0.361 -0.265,0.52 -0.563,0.53 -0.262,0.01 -0.549,-0.046 -0.791,-0.156 -1.142,-0.52 -2.323,-0.569 -3.478,-0.175 -1.205,0.41 -2.29,1.079 -3.111,2.078 -0.285,0.344 -0.692,0.692 -0.424,1.291 0.093,0.208 -0.046,0.553 -0.377,0.682 -0.453,0.179 -0.774,0.073 -1.023,-0.4 -0.245,-0.47 -0.503,-0.943 -0.688,-1.44 -0.559,-1.512 -1.443,-2.793 -2.628,-3.875 -0.635,-0.579 -1.324,-0.721 -1.84,-0.328 -0.334,0.255 -0.632,0.556 -0.937,0.85 -0.592,0.569 -1.36,0.665 -2.101,0.675 -0.705,0.01 -1.003,0.109 -1.264,0.781 -0.331,0.847 -0.437,1.741 -0.536,2.628 -0.083,0.725 -0.242,1.4 -0.721,1.972 -0.235,0.281 -0.149,0.563 0.159,0.804 0.136,0.106 0.268,0.268 0.311,0.43 0.265,1.003 0.976,1.638 1.764,2.217 1.016,0.744 2.012,1.516 3.058,2.214 0.649,0.437 1.241,1.069 2.164,0.893 0.112,-0.023 0.258,0.096 0.38,0.162 0.563,0.321 1.115,0.662 1.688,0.963 0.414,0.218 0.596,0.546 0.443,0.927 -0.146,0.361 -0.569,0.546 -0.966,0.4 -0.281,-0.089 -0.546,-0.225 -0.87,-0.367Z" id="path_0"/><path fill="#000" d="M4.214,20.527c0.252,-0.566 0.801,-0.546 1.208,-0.195 1.532,1.327 3.071,2.651 4.65,3.918 0.642,0.516 1.403,0.877 2.092,1.334 0.192,0.126 0.404,0.341 0.44,0.546 0.036,0.202 -0.076,0.566 -0.228,0.635 -0.225,0.106 -0.605,0.116 -0.807,-0.01 -1.178,-0.748 -2.369,-1.486 -3.471,-2.343 -1.175,-0.913 -2.257,-1.939 -3.362,-2.935 -0.215,-0.192 -0.351,-0.473 -0.523,-0.711 0.003,-0.079 0.003,-0.159 0.003,-0.238ZM54.582,26.994c-0.215,-0.179 -0.443,-0.308 -0.582,-0.496 -0.175,-0.242 -0.04,-0.493 0.159,-0.669 0.195,-0.172 0.42,-0.318 0.649,-0.447 1.519,-0.864 2.882,-1.946 4.213,-3.071 0.755,-0.639 1.479,-1.314 2.214,-1.976 0.364,-0.328 0.755,-0.367 1.019,-0.103 0.271,0.268 0.218,0.695 -0.136,1.052 -1.903,1.919 -4.011,3.584 -6.274,5.056 -0.371,0.238 -0.784,0.407 -1.261,0.652ZM58.414,15.984c-0.202,0.367 -0.328,0.672 -0.52,0.927 -1.118,1.479 -2.254,2.949 -3.389,4.418 -0.357,0.463 -0.91,0.49 -1.228,0.089 -0.262,-0.334 -0.083,-0.599 0.112,-0.854 0.384,-0.503 0.784,-0.993 1.171,-1.492 0.84,-1.099 1.678,-2.201 2.515,-3.299 0.063,-0.083 0.132,-0.199 0.218,-0.222 0.212,-0.063 0.467,-0.162 0.645,-0.093 0.185,0.069 0.301,0.321 0.473,0.526ZM13.507,21.093c-0.139,0.185 -0.238,0.41 -0.41,0.526 -0.245,0.166 -0.543,0.156 -0.754,-0.089 -0.387,-0.447 -0.765,-0.904 -1.125,-1.373 -0.87,-1.138 -1.727,-2.29 -2.588,-3.438 -0.086,-0.116 -0.159,-0.242 -0.225,-0.371 -0.192,-0.377 -0.122,-0.665 0.208,-0.877 0.295,-0.189 0.625,-0.119 0.867,0.199 0.96,1.251 1.916,2.508 2.876,3.759 0.288,0.374 0.599,0.735 0.88,1.115 0.106,0.142 0.159,0.318 0.271,0.549Z" id="path_1"/><path fill="#000" d="M58.718,20.299c-0.126,0.228 -0.182,0.42 -0.308,0.549 -1.317,1.387 -2.647,2.763 -3.974,4.136 -0.347,0.357 -0.794,0.457 -1.046,0.242 -0.294,-0.248 -0.364,-0.556 -0.122,-0.874 0.308,-0.41 0.642,-0.804 1.003,-1.171 1.072,-1.099 2.164,-2.174 3.243,-3.27 0.258,-0.261 0.569,-0.242 0.841,-0.132 0.152,0.069 0.232,0.324 0.364,0.52ZM8.619,19.654c0.192,0.109 0.42,0.185 0.573,0.338 1.009,0.989 2.005,1.989 2.995,3.001 0.377,0.384 0.725,0.801 1.069,1.214 0.255,0.304 0.232,0.781 -0.023,0.996 -0.278,0.238 -0.619,0.202 -0.937,-0.129 -1.377,-1.423 -2.747,-2.849 -4.117,-4.276 -0.208,-0.215 -0.298,-0.443 -0.162,-0.751 0.116,-0.258 0.281,-0.364 0.602,-0.394Z" id="path_2"/><path fill="#030303" d="M53.44,24.224c0.056,-1.43 -0.046,-2.843 -0.43,-4.229 -0.271,-0.98 -0.771,-1.843 -1.363,-2.657 -0.159,-0.218 -0.407,-0.371 -0.592,-0.576 -0.377,-0.41 -0.884,-0.718 -1.277,-1.125 -0.096,-0.099 -0.199,-1.211 -0.199,-1.211s0.95,0.536 1.357,0.473c0.361,-0.053 0.923,0.238 0.923,0.837 0,0.126 0.553,0.688 0.715,0.841 0.559,0.52 0.612,0.748 0.91,1.135 0.182,0.242 0.354,0.291 0.516,0.589 0.142,0.261 0.189,0.665 0.271,0.844 0.261,0.582 0.453,1.039 0.533,1.423 0.242,1.128 0.202,1.254 0.268,1.754 -0.023,0.457 0,0.682 0,1.142 0,0.182 0.222,0.536 0.268,0.718 0.113,0.255 0.268,0.49 0.381,0.748 0.179,0.4 0.314,0.771 0.493,1.168 0.238,0.635 0.516,1.158 0.754,1.794 0.103,0.271 0.222,0.536 0.301,0.814 0.126,0.434 -0.043,0.771 -0.42,0.894 -0.344,0.112 -0.635,-0.079 -0.824,-0.486 -0.354,-0.761 -0.728,-1.512 -1.095,-2.267 -0.235,-0.377 -0.47,-0.754 -0.705,-1.128 -0.083,-0.126 -0.169,-0.252 -0.252,-0.377 -0.182,-0.367 -0.357,-0.741 -0.533,-1.115ZM12.984,24.105c-0.056,-1.43 0.046,-2.843 0.43,-4.229 0.271,-0.979 0.771,-1.843 1.363,-2.657 0.159,-0.218 0.407,-0.371 0.592,-0.576 0.377,-0.41 0.884,-0.718 1.277,-1.125 0.096,-0.099 1.214,-1.42 1.214,-1.42s-1.966,0.741 -2.373,0.682c-0.361,-0.053 -0.923,0.238 -0.923,0.837 0,0.126 -0.553,0.688 -0.715,0.841 -0.559,0.52 -0.612,0.748 -0.91,1.135 -0.182,0.242 -0.354,0.291 -0.516,0.589 -0.142,0.261 -0.189,0.665 -0.271,0.844 -0.261,0.582 -0.453,1.039 -0.533,1.423 -0.242,1.128 -0.202,1.254 -0.268,1.754 0.023,0.457 0,0.682 0,1.142 0,0.182 -0.222,0.536 -0.268,0.718 -0.112,0.255 -0.268,0.49 -0.38,0.748 -0.179,0.4 -0.314,0.771 -0.493,1.168 -0.238,0.635 -0.516,1.158 -0.755,1.794 -0.103,0.271 -0.109,0.53 -0.189,0.808 -0.126,0.433 -0.069,0.778 0.308,0.9 0.344,0.112 0.635,-0.079 0.824,-0.486 0.354,-0.761 0.728,-1.512 1.095,-2.267 0.235,-0.377 0.47,-0.754 0.705,-1.128 0.083,-0.126 0.169,-0.252 0.252,-0.377 0.182,-0.367 0.357,-0.741 0.533,-1.115Z" id="path_3"/><path fill="#000" d="M34.613,60.053h-2.78c-0.073,-0.026 -0.146,-0.069 -0.218,-0.073 -1.602,-0.06 -3.16,-0.371 -4.706,-0.784 -2.161,-0.576 -4.176,-1.486 -6.079,-2.647 -2.24,-1.367 -4.196,-3.061 -5.891,-5.073 -1.903,-2.263 -3.309,-4.805 -4.309,-7.578 -0.546,-1.519 -0.864,-3.098 -1.099,-4.689 -0.05,-0.328 -0.026,-0.705 0.089,-1.013 0.741,-2.009 1.873,-3.786 3.326,-5.354 1.579,-1.701 3.418,-3.074 5.45,-4.186 4.362,-2.393 9.074,-3.481 14.008,-3.601 1.731,-0.043 3.475,0.136 5.202,0.298 2.359,0.222 4.646,0.814 6.86,1.641 3.627,1.36 6.877,3.309 9.458,6.264 1.228,1.41 2.217,2.958 2.872,4.716 0.116,0.308 0.262,0.632 0.252,0.947 -0.016,0.563 -0.112,1.125 -0.225,1.681 -0.424,2.075 -1.052,4.087 -1.989,5.993 -1.363,2.77 -3.177,5.199 -5.477,7.271 -2.075,1.87 -4.388,3.346 -6.969,4.405 -2.088,0.857 -4.249,1.43 -6.499,1.638 -0.424,0.033 -0.85,0.093 -1.277,0.146Z" id="path_4"/><path fill="#000" d="M49.045,20.312c0,0.265 -0.066,0.467 -0.208,0.741 -0.212,0.4 -0.599,0.477 -1.023,0.42 -0.391,-0.053 -0.53,-0.344 -0.559,-0.669 -0.04,-0.4 -0.05,-0.814 0,-1.214 0.053,-0.443 0.44,-0.731 0.887,-0.751 0.397,-0.016 0.735,0.245 0.85,0.685 0.053,0.202 0.096,0.503 0.053,0.788ZM19.46,20.143c-0.026,0.235 -0.03,0.437 -0.073,0.629 -0.079,0.364 -0.294,0.629 -0.669,0.702 -0.404,0.079 -0.738,-0.083 -0.933,-0.447 -0.298,-0.559 -0.298,-1.148 -0.043,-1.718 0.146,-0.328 0.42,-0.513 0.798,-0.467 0.394,0.05 0.711,0.235 0.831,0.632 0.069,0.225 0.066,0.47 0.089,0.669Z" id="path_5"/><path fill="#000" d="M28.908,24.601c-0.371,-0.606 -0.367,-1.218 -0.033,-1.837 0.314,-0.579 0.804,-0.85 1.456,-0.847 1.995,0.003 3.991,0.033 5.983,-0.007 1.38,-0.026 2.138,1.625 1.423,2.694 -0.166,-0.559 -0.543,-0.791 -1.023,-0.629 -0.112,0.036 -0.222,0.079 -0.331,0.122 -0.007,-0.066 -0.013,-0.132 -0.013,-0.199 0,-0.626 -0.374,-0.622 -0.811,-0.582 -0.857,0.076 -1.479,0.05 -2.336,0.05 -0.675,0 -1.228,-0.05 -1.903,-0.043 -0.708,0.01 -1.049,-0.228 -1.056,0.778 -0.063,-0.02 -0.126,-0.03 -0.185,-0.056 -0.599,-0.252 -0.983,-0.066 -1.171,0.556Z" id="path_6"/><path fill="#000" d="M28.908,24.601c0.189,-0.626 0.572,-0.808 1.168,-0.559 0.06,0.026 0.126,0.036 0.185,0.056 0.47,0.102 0.94,0.278 1.413,0.298 1.095,0.046 2.197,0.046 3.293,0 0.477,-0.02 0.943,-0.195 1.416,-0.298 0.109,-0.04 0.218,-0.083 0.331,-0.123 0.48,-0.166 0.857,0.069 1.023,0.629 0.089,0.513 -0.347,0.834 -1.039,0.989 -0.599,0.132 -1.231,0.156 -1.85,0.156 -1.453,0 -2.906,-0.02 -4.358,-0.079 -0.381,-0.017 -0.761,-0.179 -1.128,-0.314 -0.328,-0.126 -0.496,-0.387 -0.453,-0.754Z" id="path_7"/></svg>