<svg width="124" height="124" viewBox="0 0 243 242" fill="none" xmlns="http://www.w3.org/2000/svg">
    <path d="M197.072 2.26418H44.115C20.2544 2.26418 0.906715 21.6118 0.906715 45.4725V198.429C0.906715 222.29 20.2544 241.637 44.115 241.637H197.072C220.932 241.637 240.28 222.29 240.28 198.429V45.4725C240.28 21.6118 220.932 2.26418 197.072 2.26418Z" fill="#81A263"/>
    <path d="M119.969 221.666C119.477 221.522 118.997 221.258 118.505 221.258C111.22 221.258 104.102 219.973 97.2127 217.825C91.776 216.132 86.5548 213.78 81.2737 211.632C79.4614 210.888 77.7691 209.831 75.993 208.979C75.6688 208.823 75.1886 208.859 74.8288 208.967C71.5519 210.035 68.4676 208.055 68.0955 204.659C68.0473 204.262 67.6994 203.83 67.3632 203.566C63.5946 200.41 59.7776 197.301 56.0209 194.132C55.0968 193.352 54.3286 192.38 53.4045 191.576C53.0926 191.3 52.5526 191.24 52.1083 191.192C50.1041 191.012 48.1956 189.536 48.3157 187.555C48.4836 184.975 46.8276 183.51 45.6151 181.71C43.983 179.298 42.1826 176.969 40.8022 174.413C36.6854 166.755 33.5169 158.702 31.3685 150.264C31.2604 149.82 30.9244 149.28 30.5403 149.1C27.5517 147.66 26.6876 144.611 28.74 141.887C29.4721 140.914 29.5321 140.038 29.4721 138.982C29.3041 136.209 29.2201 133.425 29.064 130.652C29.04 130.196 28.932 129.704 28.704 129.32C27.3957 127.124 27.4797 125.167 29.2201 123.271C30.0962 122.311 30.4923 121.315 30.3963 120.066C30.3723 119.646 30.4683 119.226 30.5403 118.806C30.7324 117.714 30.8404 116.73 29.9762 115.746C29.004 114.629 29.076 112.541 30.2762 111.869C31.9806 110.909 31.8846 109.264 32.3647 107.836C32.7607 106.648 33.1208 105.423 33.3368 104.187C33.4208 103.731 33.2048 102.963 32.8688 102.735C29.6161 100.575 26.2675 98.5705 23.0269 96.386C20.7225 94.8377 18.334 93.3134 16.3896 91.369C13.173 88.1523 10.1365 84.7199 7.31593 81.155C5.40755 78.7424 4.14732 75.862 3.57122 72.7654V70.7492C4.02731 67.9525 5.50359 65.7322 7.36395 63.6438C7.98806 62.9355 8.04805 61.6392 8.1561 60.5951C8.34814 58.8908 8.22809 57.1387 8.48016 55.4464C9.09226 51.3295 12.2969 47.9928 16.3536 47.0447C17.0498 46.8764 17.7459 46.6726 18.466 46.6004C20.3744 46.4086 21.7066 45.4123 22.8469 43.9122C25.2713 40.7434 28.4159 38.967 32.5207 39.3032C34.8971 39.495 37.1054 40.3593 38.7139 42.0397C40.9821 44.416 42.9987 47.0447 45.0152 49.6492C46.2153 51.1975 47.2954 52.8658 48.2917 54.5581C49.288 56.2385 50.116 58.0269 50.9923 59.7068C58.4814 51.5214 67.3034 46.9845 78.8495 49.5172C78.8495 49.169 78.8375 48.9528 78.8495 48.7251C78.9815 45.4362 81.9099 43.432 84.7907 45.0402C86.4467 45.9643 87.5152 45.1363 88.8114 44.8001C90.7558 44.2963 92.6639 43.6841 94.8244 43.0479C94.8124 43.0838 94.8723 42.8198 94.9445 42.5558C95.7844 39.0631 98.8691 37.971 101.774 40.0713C102.218 40.3952 102.926 40.4794 103.49 40.4554C104.474 40.4195 105.446 40.2034 106.539 40.0474C106.755 38.2231 107.727 36.8667 109.635 36.4945C111.628 36.1105 113.164 36.9747 114.4 38.523C114.64 38.823 115.18 39.0152 115.588 39.0152C118.997 39.0511 122.406 39.0631 125.814 39.0032C126.246 38.9913 126.787 38.7029 127.063 38.3551C129.607 35.2944 133.268 35.8225 134.684 39.4831C134.768 39.6992 134.864 39.9633 135.032 40.0833C135.872 40.6716 139.017 40.4674 139.893 39.7953C142.089 38.127 145.198 39.0631 146.146 41.6795C146.326 42.1717 146.422 42.6878 146.494 42.9877C149.255 43.864 151.907 44.7163 154.572 45.5443C154.848 45.6284 155.232 45.6643 155.484 45.5443C159.709 43.5038 162.193 44.8244 162.577 49.4813C173.991 46.8764 182.765 51.5696 190.314 59.515C191.491 57.3788 192.595 55.0623 193.987 52.9377C195.883 50.0333 197.876 47.1767 200.036 44.4762C202.209 41.7636 204.933 39.7112 208.546 39.3032C212.447 38.8593 215.675 40.3474 218.016 43.3598C219.576 45.3644 221.388 46.5047 223.873 46.7807C229.982 47.4647 233.151 52.9979 233.162 57.8466C233.162 58.6627 233.151 59.4791 233.151 60.2951C233.163 61.9395 233.535 63.3917 234.771 64.6521C237.867 67.8325 238.408 71.6374 236.895 75.706C235.635 79.0906 233.679 82.0792 231.158 84.6836C230.114 85.7641 229.286 87.0842 228.218 88.1404C226.357 89.9767 224.533 91.921 222.42 93.4215C217.86 96.6381 213.095 99.5904 208.45 102.699C208.114 102.927 207.862 103.647 207.958 104.055C208.414 106.108 208.978 108.136 209.566 110.153C209.674 110.537 210.022 110.933 210.358 111.161C212.147 112.385 212.507 114.257 211.211 115.998C211.09 116.154 210.922 116.262 210.838 116.43C210.418 117.198 211.006 121.951 211.595 122.623C213.959 125.347 214.091 126.403 212.494 129.548C212.35 129.824 212.315 130.184 212.303 130.508C212.147 133.521 211.979 136.546 211.907 139.558C211.895 140.242 212.159 141.022 212.531 141.611C213.503 143.159 213.899 144.875 213.479 146.555C213.263 147.42 212.303 148.32 211.45 148.74C210.526 149.196 210.142 149.736 209.83 150.66C208.042 156.013 206.458 161.462 204.261 166.647C202.389 171.076 199.856 175.241 197.456 179.43C196.484 181.134 195.055 182.562 193.903 184.17C193.543 184.674 193.231 185.335 193.219 185.935C193.159 189.416 192.175 190.616 188.718 191.168C188.502 191.204 188.238 191.276 188.094 191.432C183.797 196.065 178.924 200.014 173.811 203.698C173.523 203.902 173.307 204.382 173.283 204.742C173.067 207.731 169.85 209.951 166.982 209.111C166.394 208.943 165.602 208.991 165.038 209.243C160.549 211.223 156.18 213.54 151.595 215.256C142.485 218.665 133.136 221.138 123.294 221.233C122.658 221.246 122.034 221.497 121.397 221.642C120.929 221.666 120.449 221.666 119.969 221.666ZM39.7222 103.935C38.4016 104.56 38.2337 106.024 37.9218 107.26C37.4296 109.216 37.2497 111.245 36.9015 113.225C36.3854 116.142 35.6533 119.022 35.3412 121.963C35.0171 124.939 35.4132 128.024 34.9211 130.965C34.285 134.793 36.9857 138.298 35.6893 142.09C35.6653 142.151 35.7973 142.247 35.8093 142.342C36.2174 144.467 36.5055 146.615 37.0336 148.704C38.1017 152.917 39.1099 157.165 40.4903 161.27C41.5102 164.319 43.0585 167.199 44.391 170.128C47.0673 176.009 51.2803 180.81 55.5291 185.563C56.6331 186.799 58.0375 187.783 58.9975 189.116C61.7702 192.992 65.4548 195.897 69.2717 198.525C73.8564 201.67 78.7534 204.43 83.6743 207.047C88.9072 209.831 94.4882 211.775 100.454 212.448C103.214 212.76 105.951 213.264 108.723 213.564C110.511 213.768 112.336 213.864 114.136 213.84C116.417 213.804 118.697 213.492 120.977 213.456C123.714 213.408 126.462 213.708 129.187 213.552C133.1 213.324 137.012 212.928 140.901 212.4C143.59 212.04 146.314 211.596 148.871 210.731C155.676 208.427 162.013 205.138 168.098 201.262C173.859 197.589 178.996 193.268 183.533 188.191C185.622 185.851 187.71 183.522 189.726 181.134C191.311 179.261 193.051 177.437 194.227 175.325C196.448 171.316 198.308 167.127 200.3 162.999C200.648 162.278 200.997 161.546 201.2 160.778C202.377 156.433 203.601 152.112 204.597 147.72C205.125 145.427 205.389 143.027 205.425 140.674C205.437 139.486 205.029 138.382 205.917 137.302C206.265 136.881 206.385 136.15 206.385 135.561C206.326 131.072 206.29 126.572 206.085 122.083C206.001 120.114 205.593 118.158 205.257 116.214C205.029 114.918 204.441 113.657 204.393 112.361C204.321 109.768 203.637 107.356 202.665 104.992C202.329 104.152 201.86 103.731 200.912 104.272C200.048 104.751 199.148 105.159 198.224 105.472C197.06 105.868 195.404 104.944 194.971 103.779C194.491 102.447 195.14 101.067 196.411 100.455C197.84 99.7706 199.232 98.9785 200.636 98.2343C202.509 97.238 204.165 95.5337 206.613 96.5659C206.745 96.6261 207.01 96.3861 207.202 96.278C208.198 95.6658 209.242 95.1018 210.19 94.4174C215.111 90.8768 220.092 87.3961 224.893 83.6757C226.957 82.0792 228.866 80.1468 229.262 77.2424C229.358 76.5823 230.066 75.7782 230.702 75.4779C231.794 74.9618 231.758 74.2299 231.458 73.3776C231.278 72.8615 230.93 72.4056 230.606 71.9493C228.77 69.4167 228.758 66.3922 228.23 63.4878C227.761 60.8954 227.221 58.3029 226.525 55.7702C226.045 54.0058 224.353 52.7817 223.093 52.8415C221.977 52.9017 220.86 52.9137 219.744 52.8415C216.635 52.6377 214.271 51.1014 212.399 48.6768C210.994 46.8764 208.054 46.0484 206.422 47.2968C204.297 48.9169 202.161 50.6574 200.48 52.7095C197.564 56.2863 195.607 60.4511 193.927 64.7601C193.303 66.3563 192.295 67.8444 191.25 69.2129C190.566 70.113 188.946 70.0409 188.07 69.1287C187.35 68.3725 186.774 67.4484 187.35 66.2004C187.578 65.7202 187.53 64.832 187.23 64.4239C186.006 62.8278 184.769 61.1953 183.269 59.8751C179.897 56.9225 175.984 54.894 171.543 54.0301C170.415 53.8139 169.214 53.8259 168.05 53.8737C165.386 53.9938 162.949 54.9542 160.477 55.8783C158.544 56.5983 156.72 55.5421 156.684 53.5379C156.66 52.2417 155.916 52.0255 155.184 51.5935C152.363 49.9012 149.255 49.0011 146.074 48.329C140.901 47.2246 135.728 45.9523 130.375 46.2163C129.043 46.2885 127.927 46.0245 127.171 44.812C127.051 44.6321 126.726 44.5001 126.487 44.4881C124.59 44.3681 122.682 44.2121 120.785 44.2121C119.177 44.2121 117.557 44.4403 115.948 44.4642C115.024 44.4762 114.304 44.5723 113.632 45.4003C113.236 45.8925 112.324 46.1326 111.628 46.1804C109.995 46.3005 108.327 46.0484 106.719 46.2766C103.466 46.7205 100.214 47.2968 96.9969 47.9689C93.2282 48.749 89.5314 49.7692 86.0989 51.6294C85.0428 52.2058 84.5143 52.8415 84.5143 54.042C84.5266 55.3502 83.5543 55.9262 82.4742 55.9625C81.5258 55.9984 80.4816 55.7942 79.6057 55.3981C75.4649 53.514 71.1801 53.3337 66.9911 54.762C62.6222 56.2504 58.6856 58.675 55.709 62.2993C54.6768 63.5477 53.2007 64.808 54.1727 66.9805C54.5089 67.7364 54.0048 68.9847 52.8046 69.453C51.1602 70.1011 49.996 69.717 49.0958 68.0008C48.2076 66.2961 47.2715 64.5799 46.5994 62.7795C44.5709 57.2946 41.3662 52.6497 37.0695 48.7251C34.7651 46.6244 32.2686 46.1086 30.3963 47.5369C29.184 48.461 28.1039 49.5531 26.9996 50.6212C24.8513 52.6856 22.0667 53.0338 19.3782 53.0697C16.8217 53.1059 15.7415 53.4657 14.7933 55.9023C13.5931 58.9749 13.209 62.2155 12.849 65.4322C12.5489 68.0606 11.9728 70.5091 10.2325 72.5855C9.38031 73.6057 9.69237 74.6259 10.8086 75.5018C11.3007 75.8859 11.7808 76.4742 11.9368 77.0621C12.897 80.6991 15.4775 83.0033 18.334 85.104C22.0187 87.8042 25.6314 90.6008 29.4241 93.1335C31.7765 94.7177 33.9249 97.0099 37.2737 96.3741C37.6817 96.2899 38.2098 96.7219 38.6537 96.962C40.6942 98.1262 42.6987 99.3626 44.7751 100.455C46.2752 101.247 46.9353 102.435 46.3833 103.815C45.8552 105.124 44.3189 105.796 42.8786 105.268C41.8584 104.944 40.8984 104.451 39.7222 103.935Z" fill="black"/>
    <path d="M201.357 100.239C200.733 99.1824 199.796 98.6663 198.656 98.1382C197.288 97.502 195.775 96.4941 195.091 95.2338C193.975 93.1814 193.471 90.7931 192.703 88.5364C192.619 88.2724 192.595 87.9362 192.427 87.7443C189.042 83.9876 189.846 80.039 191.851 76.0179C192.043 75.6339 192.331 75.2621 192.403 74.8537C192.475 74.3978 192.511 73.7617 192.259 73.4737C191.382 72.4774 191.431 71.3371 191.635 70.2092C192.511 65.2882 194.551 60.8352 197.264 56.6824C199.352 53.4777 201.369 50.2132 203.745 47.2246C205.005 45.6404 206.818 44.3442 208.63 43.3841C211.054 42.0879 213.875 43.0599 215.483 45.2683C216.215 46.2766 216.983 47.2486 217.692 48.2688C218.556 49.5172 219.744 50.0811 221.22 50.1051C222.132 50.1174 223.057 50.1892 223.957 50.0931C227.209 49.7333 229.778 52.5536 230.114 55.6502C230.306 57.3788 230.15 59.1429 230.162 60.8954C230.174 63.2717 230.234 65.6241 232.418 67.2083C235.479 69.429 234.759 73.4857 233.391 75.7902C230.414 80.7949 226.225 84.7318 221.868 88.4886C217.403 92.341 212.495 95.5816 207.238 98.2702C205.713 99.0503 204.081 99.5904 202.497 100.239H201.357ZM41.1983 100.239C41.8225 99.1824 42.7586 98.6663 43.8989 98.1382C45.2669 97.502 46.7793 96.4941 47.4633 95.2338C48.5797 93.1814 49.0838 90.7931 49.852 88.5364C49.9358 88.2724 49.9601 87.9362 50.128 87.7443C53.5126 83.9876 52.7085 80.039 50.7039 76.0179C50.5121 75.6339 50.2241 75.2621 50.1519 74.8537C50.0801 74.3978 50.0439 73.7617 50.2959 73.4737C51.1722 72.4774 51.1243 71.3371 50.9201 70.2092C50.0439 65.2882 48.0037 60.8352 45.2912 56.6824C43.2029 53.4777 41.1863 50.2132 38.81 47.2246C37.5497 45.6404 35.7373 44.3442 33.9249 43.3841C31.5005 42.0879 28.6799 43.0599 27.0717 45.2683C26.3395 46.2766 25.5714 47.2486 24.8632 48.2688C23.9991 49.5172 22.8108 50.0811 21.3346 50.1051C20.4224 50.1174 19.4982 50.1892 18.5981 50.0931C15.3455 49.7333 12.7769 52.5536 12.4409 55.6502C12.2489 57.3788 12.4049 59.1429 12.3929 60.8954C12.3809 63.2717 12.3209 65.6241 10.1364 67.2083C7.07587 69.429 7.79602 73.4857 9.16429 75.7902C12.1408 80.7949 16.3296 84.7318 20.6864 88.4886C25.1513 92.341 30.0602 95.5816 35.3172 98.2702C36.8413 99.0503 38.4738 99.5904 40.058 100.239H41.1983Z" fill="#D7F4F1"/>
    <path d="M15.2854 73.4498C16.1976 71.3973 18.19 71.4691 19.6662 72.7414C25.2233 77.5543 30.8043 82.3552 36.5294 86.9522C38.8579 88.8244 41.6183 90.1326 44.115 91.789C44.811 92.2453 45.5792 93.0254 45.7112 93.7693C45.8432 94.5015 45.4352 95.8217 44.8828 96.0738C44.0668 96.4579 42.6868 96.4938 41.9545 96.0379C37.6817 93.3253 33.3608 90.6487 29.3641 87.5401C25.1033 84.2277 21.1785 80.5069 17.1698 76.8942C16.3896 76.1982 15.8975 75.178 15.2734 74.3137C15.2854 74.0257 15.2854 73.7377 15.2854 73.4498ZM197.96 96.9022C197.18 96.254 196.352 95.7858 195.847 95.1018C195.211 94.2255 195.704 93.3134 196.423 92.6772C197.132 92.053 197.948 91.525 198.776 91.0567C204.285 87.9242 209.23 83.9996 214.055 79.9186C216.792 77.6025 219.42 75.154 222.084 72.7534C223.405 71.5652 224.821 71.4213 225.781 72.3813C226.765 73.3536 226.573 74.902 225.289 76.1982C218.388 83.1592 210.742 89.1965 202.533 94.5374C201.188 95.4017 199.688 96.0139 197.96 96.9022ZM211.859 56.9704C211.126 58.3029 210.67 59.4069 209.974 60.331C205.917 65.6962 201.801 71.0252 197.684 76.3542C196.388 78.0345 194.383 78.1306 193.231 76.6784C192.283 75.4659 192.931 74.5059 193.639 73.5818C195.031 71.7575 196.484 69.981 197.888 68.1687C200.936 64.1838 203.973 60.187 207.01 56.2022C207.238 55.9023 207.49 55.4823 207.802 55.3981C208.57 55.17 209.494 54.8102 210.142 55.0623C210.814 55.3143 211.234 56.2265 211.859 56.9704ZM48.9877 75.5018C48.4836 76.1743 48.1238 76.9903 47.4996 77.4103C46.6114 78.0105 45.5313 77.9746 44.7631 77.0864C43.3588 75.4659 41.9904 73.8095 40.6822 72.1053C37.5257 67.9765 34.417 63.7998 31.2964 59.635C30.9844 59.215 30.7203 58.7588 30.4803 58.2909C29.7841 56.9225 30.0362 55.8783 31.2364 55.1102C32.3046 54.4261 33.5049 54.6782 34.381 55.8304C37.8616 60.3673 41.3303 64.9281 44.811 69.4649C45.8552 70.821 46.9835 72.1292 48.0037 73.5096C48.3878 74.0257 48.5797 74.6619 48.9877 75.5018Z" fill="#29365E" fill-opacity="0.196078"/>
    <path d="M212.963 72.6214C212.507 73.4498 212.303 74.1458 211.846 74.614C207.07 79.6426 202.245 84.6357 197.432 89.6165C196.171 90.9128 194.551 91.2729 193.639 90.4928C192.571 89.5926 192.319 88.4766 193.195 87.3243C194.311 85.8359 195.523 84.4076 196.832 83.0755C200.721 79.0906 204.681 75.1899 208.594 71.2171C209.53 70.269 210.658 70.3412 211.642 70.7372C212.194 70.9893 212.482 71.9134 212.963 72.6214ZM31.2604 70.281C31.9566 70.677 32.7847 70.953 33.3368 71.5054C36.9977 75.0938 40.6104 78.7185 44.1988 82.3914C45.5672 83.7834 46.8275 85.2958 48.0756 86.7963C48.9997 87.9003 48.9159 89.6285 47.9918 90.4086C46.9835 91.2729 45.7471 91.1409 44.5949 89.9408C39.6021 84.7797 34.6331 79.6067 29.6641 74.4337C28.908 73.6536 28.5839 72.8256 29.076 71.7092C29.4961 70.7731 30.0962 70.3891 31.2604 70.281Z" fill="#29365E" fill-opacity="0.196078"/>
    <path d="M193.819 86.8561C194.023 81.6711 193.651 76.546 192.259 71.5174C191.275 67.9645 189.462 64.832 187.314 61.8793C186.738 61.0872 185.838 60.5352 185.166 59.791C183.797 58.3029 181.961 57.1865 180.533 55.7104C180.184 55.3503 179.812 51.3175 179.812 51.3175C179.812 51.3175 183.257 53.2619 184.733 53.0338C186.042 52.8416 188.082 53.8981 188.082 56.0702C188.082 56.5264 190.086 58.5669 190.674 59.1189C192.703 61.0031 192.895 61.8315 193.975 63.2358C194.635 64.1117 195.259 64.2919 195.847 65.372C196.364 66.3201 196.532 67.7846 196.832 68.4327C197.78 70.545 198.476 72.2014 198.764 73.5937C199.64 77.6863 199.496 78.1426 199.736 79.9549C199.652 81.6113 199.736 82.4273 199.736 84.0957C199.736 84.7558 200.54 86.0401 200.708 86.7002C201.117 87.6243 201.681 88.4766 202.089 89.4127C202.737 90.8649 203.229 92.209 203.877 93.6492C204.741 95.9537 205.749 97.8502 206.613 100.155C206.986 101.139 207.418 102.099 207.706 103.107C208.162 104.68 207.55 105.904 206.182 106.348C204.933 106.756 203.877 106.06 203.193 104.584C201.909 101.823 200.552 99.0986 199.22 96.3618C198.368 94.9937 197.516 93.6253 196.664 92.2692C196.364 91.8129 196.052 91.3571 195.751 90.9008C195.091 89.5686 194.455 88.2122 193.819 86.8561ZM47.0916 86.4242C46.8874 81.2392 47.2595 76.1141 48.6519 71.085C49.6358 67.5325 51.4482 64.4 53.5967 61.4474C54.1727 60.6553 55.0729 60.1033 55.7449 59.359C57.1133 57.8706 58.9496 56.7546 60.3779 55.2781C60.7261 54.9179 64.7827 50.1294 64.7827 50.1294C64.7827 50.1294 57.6534 52.8176 56.1772 52.6018C54.869 52.4096 52.8286 53.4657 52.8286 55.6382C52.8286 56.0945 50.824 58.1346 50.2361 58.687C48.2076 60.5711 48.0157 61.3995 46.9353 62.8035C46.2752 63.6797 45.651 63.86 45.0631 64.94C44.547 65.8881 44.3791 67.3523 44.0787 68.0004C43.1307 70.113 42.4347 71.7694 42.1464 73.1614C41.2705 77.2543 41.4145 77.7102 41.1744 79.5226C41.2585 81.179 41.1744 81.9954 41.1744 83.6634C41.1744 84.3238 40.3703 85.6077 40.202 86.2682C39.794 87.1923 39.23 88.0443 38.822 88.9804C38.1739 90.4329 37.6817 91.777 37.0336 93.2173C36.1694 95.5218 35.1612 97.4183 34.297 99.7224C33.9249 100.707 33.9009 101.643 33.6129 102.651C33.1568 104.223 33.3609 105.472 34.7291 105.916C35.9773 106.324 37.0336 105.628 37.7176 104.152C39.0019 101.391 40.3583 98.6663 41.6905 95.9298C42.5424 94.5618 43.3947 93.1933 44.247 91.8372C44.547 91.381 44.8589 90.9247 45.1592 90.4688C45.8193 89.1367 46.4554 87.7802 47.0916 86.4242Z" fill="#030303"/>
    <path d="M127.051 216.325H114.376C113.98 216.217 113.596 216.073 113.188 216.012C109.779 215.496 106.323 215.184 102.962 214.452C66.619 206.543 40.0101 177.869 34.8011 141.13C34.5731 139.498 34.273 137.878 34.009 136.245V122.707C34.117 122.371 34.297 122.035 34.333 121.687C34.9451 115.566 36.0733 109.54 37.9218 103.659C51.4003 60.6313 95.1124 35.1744 139.293 44.6082C185.766 54.5462 215.819 100.887 205.894 147.324C198.176 183.438 169.226 210.36 132.535 215.52C130.699 215.784 128.875 216.061 127.051 216.325Z" fill="#EDB338"/>
    <path d="M125.538 216.805H115.456C115.192 216.709 114.928 216.552 114.664 216.54C108.855 216.325 103.202 215.196 97.5968 213.696C89.7595 211.608 82.4503 208.307 75.5487 204.094C67.4234 199.137 60.33 192.992 54.1847 185.695C47.2835 177.485 42.1826 168.268 38.5579 158.21C36.5773 152.7 35.4252 146.975 34.5731 141.203C34.393 140.014 34.4771 138.646 34.8971 137.53C37.5856 130.244 41.6905 123.799 46.9596 118.11C52.6846 111.941 59.3577 106.96 66.7271 102.927C82.546 94.2495 99.6373 90.3009 117.533 89.8686C123.81 89.7126 130.135 90.3607 136.4 90.949C144.958 91.7531 153.251 93.9013 161.281 96.9022C174.436 101.835 186.222 108.904 195.583 119.622C200.036 124.735 203.625 130.352 206.001 136.726C206.422 137.842 206.95 139.018 206.913 140.158C206.854 142.198 206.505 144.239 206.097 146.255C204.561 153.781 202.281 161.078 198.884 167.991C193.939 178.037 187.362 186.847 179.02 194.36C171.495 201.142 163.105 206.495 153.744 210.335C146.17 213.444 138.333 215.52 130.171 216.276C128.635 216.396 127.086 216.613 125.538 216.805Z" fill="#E9DBBD" stroke="black" stroke-width="0.7"/>
    <path d="M44.3791 79.2107C44.6551 77.8905 44.955 76.5703 45.2071 75.2378C47.0314 65.8642 55.5531 54.3779 68.2514 52.5177C71.7321 52.0016 75.2966 51.6653 78.8132 52.7095C81.8261 53.5977 82.7622 55.6382 81.454 58.5187C81.3219 58.807 81.286 59.1548 81.2737 59.4791C81.1899 61.3393 80.5657 62.3715 78.7055 62.7915C75.3086 63.5716 71.8642 64.1117 68.4433 64.808C65.5509 65.3959 63.0904 66.7644 61.2063 69.1048C60.606 69.849 59.8259 70.4852 59.3457 71.2892C58.5895 72.5735 57.9414 73.9416 57.3654 75.3219C56.6571 77.0262 56.0572 78.7667 55.445 80.5189C55.289 80.9632 55.1211 81.5391 55.289 81.9112C56.537 84.8037 55.5048 86.7121 52.2642 87.1082C51.9643 89.3768 51.7122 91.6929 51.3162 93.9854C50.944 96.1579 49.6478 97.2619 47.8957 97.094C46.2034 96.9261 44.955 95.4257 44.943 93.4334C44.9311 92.4371 44.967 91.4169 45.1472 90.4329C45.7112 87.3842 44.9071 84.4076 44.391 81.5271C44.2949 80.735 44.3069 79.9669 44.3791 79.2107ZM188.898 87.1441C185.562 86.5921 184.637 84.8639 185.898 81.8391C186.042 81.4912 185.958 80.891 185.73 80.5791C184.529 78.8266 183.929 76.9062 183.749 74.8058C183.713 74.3376 183.593 73.8215 183.329 73.4498C181.049 70.0528 178.624 66.6802 174.568 65.3002C172.059 64.4479 169.334 64.1838 166.718 63.6558C165.17 63.3439 163.597 63.1516 162.097 62.6834C160.669 62.2395 159.805 61.1833 159.841 59.5389C159.853 59.1309 159.733 58.687 159.553 58.3268C158.352 55.9501 159.216 53.502 161.833 52.9017C164.222 52.3497 166.742 52.1455 169.202 52.1815C176.176 52.2776 182.237 54.8581 187.158 59.7431C191.659 64.1958 194.995 69.441 196.027 75.838C196.543 79.0547 196.712 82.2471 195.739 85.5C195.295 86.9881 195.895 88.7885 196.003 90.4569C196.076 91.5489 196.196 92.6533 196.159 93.7453C196.1 95.5218 194.767 96.9261 193.171 97.0581C191.551 97.1901 190.17 96.134 189.858 94.3216C189.474 91.9812 189.222 89.6045 188.898 87.1441Z" fill="#EDB439"/>
    <path d="M177.88 72.6696C177.88 73.6296 177.64 74.3619 177.124 75.3578C176.356 76.8104 174.952 77.0864 173.415 76.8822C171.999 76.6904 171.495 75.6339 171.387 74.4577C171.243 73.0055 171.207 71.5054 171.387 70.0528C171.579 68.4447 172.983 67.4005 174.603 67.3283C176.044 67.2685 177.268 68.2165 177.688 69.8131C177.88 70.545 178.036 71.6374 177.88 72.6696ZM70.5799 72.0574C70.4838 72.9094 70.4718 73.6416 70.3159 74.3376C70.0279 75.6582 69.2477 76.6182 67.8913 76.8822C66.4271 77.1702 65.2147 76.5823 64.5067 75.2621C63.4266 73.2336 63.4266 71.097 64.3507 69.0326C64.8788 67.8444 65.8751 67.1724 67.2432 67.3403C68.6714 67.5206 69.8237 68.1926 70.2556 69.6328C70.5077 70.4489 70.4957 71.3371 70.5799 72.0574Z" fill="#050505"/>
    <path d="M30.2882 124.255C32.1606 122.155 34.117 120.979 36.2534 119.334C37.3096 118.518 38.7259 118.734 39.518 119.622C40.334 120.546 40.334 122.071 39.242 122.971C37.3698 124.519 35.4132 125.995 33.3728 127.304C31.9446 128.216 30.9604 127.352 30.2043 126.535C29.7962 125.863 29.9162 125.059 30.2882 124.255Z" fill="#DAA22C"/>
    <path d="M104.846 88.2245C103.502 86.0281 103.514 83.8074 104.726 81.5631C105.866 79.4627 107.643 78.4784 110.007 78.4904C117.245 78.5027 124.482 78.6104 131.707 78.4664C136.712 78.3703 139.461 84.3597 136.868 88.2365C136.268 86.208 134.9 85.368 133.16 85.9559C132.752 86.0879 132.356 86.2439 131.96 86.3999C131.936 86.1601 131.911 85.92 131.911 85.6799C131.911 83.4113 130.555 83.4236 128.971 83.5676C125.862 83.8436 123.606 83.7475 120.497 83.7475C118.049 83.7475 116.044 83.5676 113.596 83.5916C111.027 83.6275 109.791 82.7632 109.767 86.4122C109.539 86.34 109.311 86.3041 109.095 86.208C106.923 85.2958 105.531 85.9679 104.846 88.2245Z" fill="#DAA22D"/>
    <path d="M104.846 88.2245C105.531 85.9559 106.923 85.2958 109.083 86.196C109.299 86.2921 109.539 86.328 109.755 86.4002C111.46 86.772 113.164 87.4081 114.88 87.4803C118.853 87.6482 122.85 87.6482 126.822 87.4803C128.551 87.4081 130.243 86.772 131.96 86.4002C132.356 86.2559 132.752 86.0999 133.16 85.9559C134.9 85.3557 136.268 86.208 136.868 88.2365C137.192 90.0967 135.608 91.2609 133.1 91.8249C130.927 92.3051 128.635 92.3893 126.39 92.3893C121.121 92.3893 115.852 92.3171 110.584 92.1013C109.203 92.0411 107.823 91.4532 106.491 90.961C105.302 90.5047 104.69 89.5567 104.846 88.2245Z" fill="#CAB994"/>
    <path d="M153.984 87.6841C152.039 87.7324 151.031 86.9522 150.827 85.6799C150.635 84.5277 151.367 83.3275 152.735 83.0152C154.884 82.5234 157.068 82.2112 159.24 81.8271C159.997 81.6951 160.741 81.4912 161.497 81.4191C162.877 81.299 163.958 82.0672 164.186 83.2673C164.425 84.4798 163.765 85.7278 162.445 86.0281C159.457 86.7121 156.432 87.2162 153.984 87.6841ZM87.6831 87.6721C85.2825 87.2162 82.3059 86.7121 79.3656 86.064C77.9972 85.7641 77.3251 84.5998 77.517 83.3754C77.7092 82.1513 78.7773 81.2392 80.1218 81.443C83.0621 81.8753 85.9908 82.3914 88.8832 83.0033C90.3597 83.3156 91.1036 84.5157 90.8758 85.7278C90.6357 86.9881 89.6275 87.7443 87.6831 87.6721Z" fill="#DAA22C"/>
    <path d="M138.873 174.245C138.897 175.925 138.213 176.933 136.904 177.125C135.596 177.317 134.468 176.549 134.204 174.953C133.772 172.312 133.436 169.66 133.219 166.995C133.087 165.435 134.192 164.283 135.524 164.187C136.88 164.091 137.829 164.883 138.057 166.551C138.381 169.108 138.597 171.676 138.873 174.245ZM105.038 177.137C103.826 177.089 102.794 176.201 102.878 174.917C103.082 171.916 103.394 168.916 103.79 165.939C103.946 164.727 105.206 164.031 106.394 164.211C107.655 164.403 108.627 165.615 108.495 167.055C108.267 169.576 108.003 172.096 107.631 174.605C107.379 176.309 106.383 177.185 105.038 177.137ZM43.7788 142.283C43.719 141.286 44.2829 140.698 44.6311 140.23C46.1192 138.19 47.6316 136.15 49.2158 134.181C50.2361 132.897 51.6643 132.705 52.7444 133.557C53.8006 134.385 53.9326 135.849 52.9845 137.146C51.4964 139.186 49.9601 141.203 48.4237 143.207C47.6795 144.179 46.6114 144.683 45.5313 144.155C44.7871 143.819 43.9587 143.171 43.7788 142.283ZM197.804 142.403C197.612 143.111 196.94 143.867 196.256 144.095C195.536 144.335 194.239 144.143 193.807 143.627C191.875 141.346 190.086 138.91 188.394 136.438C187.698 135.429 188.022 134.265 189.042 133.521C190.05 132.777 191.25 132.777 192.031 133.725C193.915 136.005 195.643 138.394 197.396 140.782C197.624 141.106 197.9 141.587 197.804 142.403Z" fill="#CABA95"/>
    <path d="M156.072 157.309C155.94 158.438 155.064 158.762 154.26 159.146C153.216 159.638 152.279 158.99 151.703 158.09C151.163 157.25 150.767 156.313 150.311 155.413C149.543 153.877 148.738 152.341 148.007 150.792C147.347 149.388 147.706 147.984 148.799 147.408C150.083 146.723 151.499 147.215 152.279 148.692C153.444 150.936 153.744 151.549 154.86 153.817C155.076 154.285 156.072 156.061 156.072 157.309ZM88.4752 159.254C86.627 159.29 85.1987 157.778 85.7507 156.493C86.9748 153.601 88.3911 150.78 89.9154 148.032C90.5037 146.963 91.776 146.855 92.8681 147.408C93.9964 147.984 94.4044 149.1 93.9122 150.204C92.6882 152.905 91.3557 155.545 89.9513 158.15C89.6155 158.726 89.0874 159.074 88.4752 159.254Z" fill="#CABA94"/>
    <path d="M123.57 150.684C123.486 151.992 123.426 153.517 123.306 155.041C123.186 156.457 122.226 157.285 120.833 157.274C119.453 157.262 118.517 156.409 118.421 154.969C118.301 152.917 118.193 150.876 118.169 148.824C118.145 146.939 119.069 146.027 120.833 146.015C122.67 146.003 123.558 146.928 123.582 148.896C123.57 149.412 123.57 149.94 123.57 150.684Z" fill="#CABA95"/>
    <path d="M173.415 91.6211C175.648 91.9932 178.108 92.5931 180.677 93.3014C181.925 93.6492 182.261 94.7895 182.177 95.9298C182.093 96.9979 180.809 97.9942 179.633 97.778C177.004 97.2982 174.387 96.7219 171.831 95.99C170.691 95.6658 170.091 94.6096 170.343 93.3612C170.619 92.077 171.447 91.4288 173.415 91.6211ZM68.2754 91.501C70.1356 91.4891 71.2041 92.2572 71.372 93.3975C71.5639 94.6575 70.9879 95.7017 69.8357 96.0259C67.2551 96.7458 64.6387 97.3341 61.9984 97.778C60.7859 97.9822 59.8139 97.1179 59.5738 95.9657C59.3217 94.8258 59.79 93.6735 61.026 93.3134C63.6065 92.5811 66.2229 92.0171 68.2754 91.501Z" fill="#DAA22C"/>
    <path d="M138.26 207.047C138.26 205.018 138.993 204.07 140.157 203.914C141.501 203.734 142.558 204.346 142.881 205.654C143.482 208.055 144.046 210.479 144.55 212.904C144.826 214.212 144.01 215.532 142.858 215.88C141.813 216.193 140.421 215.616 140.097 214.44C139.353 211.788 138.765 209.099 138.26 207.047ZM103.742 206.615C103.13 209.171 102.578 211.74 101.882 214.272C101.534 215.52 100.105 216.229 99.0613 215.916C98.0291 215.616 97.105 214.248 97.3451 213.06C97.8489 210.527 98.4252 208.007 99.0733 205.51C99.3852 204.286 100.669 203.626 101.93 203.974C103.214 204.31 103.742 205.258 103.742 206.615Z" fill="#CABA94"/>
    <path d="M173.931 85.5599C173.067 85.5599 171.483 84.8758 171.255 83.6394C171.039 82.4632 171.807 81.3349 173.091 80.9269C175.047 80.3151 177.016 79.7028 178.972 79.1026C180.713 78.5745 181.901 79.0427 182.381 80.4228C182.861 81.7912 182.237 82.9195 180.545 83.5433C178.36 84.3597 176.584 85.4278 173.931 85.5599Z" fill="#DAA22C"/>
    <path d="M172.899 109.276C172.443 109.156 171.939 109.108 171.543 108.88C169.635 107.788 167.714 106.684 165.854 105.508C164.569 104.692 164.222 103.311 164.882 102.159C165.482 101.115 166.91 100.683 168.182 101.379C170.247 102.507 172.263 103.707 174.231 104.98C175.155 105.58 175.744 106.528 175.276 107.704C174.879 108.736 174.099 109.312 172.899 109.276Z" fill="#CABA95"/>
    <path d="M66.487 108.412C65.5868 107.38 66.3669 105.796 67.1953 105.256C69.3917 103.815 71.636 102.423 73.9645 101.223C74.9967 100.695 76.1729 101.067 76.833 102.183C77.4811 103.299 77.253 104.499 76.2929 105.159C74.2046 106.588 71.792 108.136 70.0758 109.024C69.4755 109.337 67.5794 109.672 66.487 108.412Z" fill="#CABA94"/>
    <path d="M170.835 201.61C170.835 202.186 170.907 202.774 170.823 203.338C170.619 204.574 169.887 205.319 168.614 205.402C167.318 205.487 166.442 204.814 166.25 203.578C165.89 201.262 165.59 198.933 165.446 196.593C165.338 194.888 166.31 193.88 167.714 193.82C169.202 193.76 170.031 194.577 170.259 196.329C170.487 198.081 170.703 199.833 170.931 201.598C170.895 201.598 170.859 201.61 170.835 201.61ZM70.7837 201.586C71.0119 199.738 71.216 197.877 71.4921 196.041C71.7082 194.565 72.5602 193.844 73.8684 193.832C75.2847 193.82 75.993 194.636 76.1729 195.909C76.269 196.641 76.137 197.421 76.0768 198.165C75.9328 199.785 75.8367 201.406 75.6089 203.014C75.3688 204.694 74.4567 205.487 73.1122 205.402C71.7441 205.307 70.8679 204.226 70.8559 202.594V201.586H70.7837Z" fill="#CABA95"/>
    <path d="M67.5794 85.5479C65.0467 85.0557 62.6704 84.1675 60.2818 83.0994C59.3337 82.6794 58.7817 81.6831 59.2496 80.4228C59.6939 79.2107 60.594 78.8745 61.722 78.9347C62.2863 78.9706 62.8384 79.1385 63.3904 79.3068C65.0827 79.8229 66.763 80.3749 68.4433 80.891C69.8357 81.311 70.664 82.4034 70.4598 83.6155C70.2317 84.9117 69.2477 85.5479 67.5794 85.5479Z" fill="#DAA22C"/>
    <path d="M70.412 152.304C70.4359 153.181 69.9198 154.405 69.5597 155.173C68.8394 156.745 68.0835 158.294 67.2791 159.818C66.487 161.318 65.2749 161.702 63.7987 160.994C62.8264 160.526 62.4184 159.146 62.9823 157.849C63.8706 155.785 64.7707 153.721 65.791 151.716C66.3071 150.696 67.1714 149.964 68.4796 150.3C69.7276 150.612 70.1958 151.284 70.412 152.304Z" fill="#CABA94"/>
    <path d="M178.936 158.918C179.056 160.13 178.372 160.802 177.352 161.198C176.272 161.606 175.24 161.282 174.736 160.322C173.559 158.09 172.467 155.797 171.507 153.457C171.015 152.256 171.735 150.888 172.803 150.432C174.075 149.892 175.167 150.36 175.744 151.464C176.884 153.661 177.844 155.953 178.864 158.222C178.948 158.413 178.912 158.677 178.936 158.918Z" fill="#CAB994"/>
    <path d="M211.727 124.939C211.702 126.968 209.866 128.216 208.462 127.34C206.326 126.007 204.297 124.471 202.353 122.863C201.369 122.047 201.332 120.822 202.113 119.742C202.809 118.782 204.261 118.53 205.341 119.286C207.177 120.582 208.978 121.939 210.706 123.367C211.246 123.811 211.51 124.591 211.727 124.939Z" fill="#DAA22D"/>
    <path d="M192.787 158.942C192.787 158.269 193.711 157.406 194.407 157.189C195.127 156.961 196.411 157.153 196.868 157.682C198.5 159.542 199.964 161.57 201.344 163.635C202.065 164.715 201.657 166.035 200.672 166.683C199.592 167.379 198.476 167.283 197.672 166.335C196.159 164.547 194.755 162.662 193.375 160.766C193.087 160.37 192.679 159.662 192.787 158.942ZM48.9279 159.074C48.8437 159.986 48.5558 160.466 48.2678 160.874C46.9353 162.686 45.5912 164.487 44.1509 166.215C43.3225 167.211 42.1946 167.379 41.0543 166.671C40.058 166.059 39.638 164.715 40.3583 163.635C41.7264 161.57 43.1905 159.53 44.835 157.694C45.3151 157.153 46.6593 156.998 47.4155 157.237C48.0875 157.453 48.7596 158.281 48.9279 159.074Z" fill="#CABA94"/>
    <path d="M149.399 125.636C149.195 124.543 149.807 123.655 150.887 123.343C151.955 123.043 153.071 123.115 153.671 124.207C154.86 126.38 155.952 128.6 157.056 130.833C157.572 131.877 157.068 132.705 156.252 133.329C155.376 134.001 154.212 134.181 153.527 133.365C151.607 131.097 149.651 126.704 149.399 125.636Z" fill="#CABA95"/>
    <path d="M89.4835 123.235C91.6799 123.235 92.8322 124.867 92.0277 126.644C91.0677 128.78 89.9154 130.845 88.7153 132.861C88.0552 133.977 86.879 134.109 85.7028 133.461C84.5386 132.825 84.1183 131.781 84.7065 130.544C85.7028 128.468 86.747 126.415 87.9232 124.435C88.3073 123.799 88.8114 123.343 89.4835 123.235ZM164.33 176.309C163.045 176.321 162.097 175.625 161.929 174.34C161.689 172.396 161.497 170.452 161.389 168.495C161.305 166.755 162.337 165.543 163.777 165.459C165.11 165.387 166.106 166.539 166.238 168.243C166.37 169.96 166.538 171.664 166.694 173.368C166.85 175.085 165.878 176.285 164.33 176.309Z" fill="#CABA94"/>
    <path d="M80.3256 168.495C80.1577 170.296 80.0496 172.108 79.8215 173.897C79.5814 175.769 78.5974 176.549 76.977 176.297C75.7409 176.105 74.9006 174.761 75.0446 173.224C75.1885 171.568 75.3449 169.9 75.4769 168.243C75.6089 166.563 76.5929 165.411 77.9373 165.435C79.2695 165.447 80.3256 166.791 80.3256 168.495ZM156.984 106.996C157.764 106.78 158.7 107.056 159.157 107.608C160.633 109.408 161.869 111.401 163.081 113.405C163.705 114.437 163.321 115.482 162.397 116.202C161.509 116.898 160.309 116.994 159.636 116.166C158.064 114.209 156.912 112.361 155.508 110.273C155.052 109.469 155.1 108.82 155.292 108.436C155.712 107.38 156.312 107.176 156.984 106.996Z" fill="#CABA95"/>
    <path d="M192.139 64.8439C193.255 64.7841 194.095 64.8559 194.719 66.0684C194.935 66.7763 194.767 67.7124 194.491 68.4327C194.323 68.8527 193.639 69.2009 193.123 69.3329C191.179 69.8127 189.222 70.2211 187.254 70.5932C185.742 70.8812 184.841 70.3651 184.397 69.1167C184.025 68.0486 184.565 66.6683 185.874 66.2004C187.866 65.4801 190.122 65.1439 192.139 64.8439Z" fill="#DAA22B"/>
    <path d="M49.8879 64.664C51.9763 64.9161 53.8847 65.4079 55.7812 66.1162C57.6175 66.8003 58.0853 68.9368 56.6691 69.993C55.997 70.4971 54.7969 70.533 53.8847 70.4249C52.3843 70.257 50.9201 69.7529 49.432 69.4529C47.5355 69.0689 46.5153 68.1085 46.7075 66.7763C46.9113 65.384 47.7996 64.664 49.8879 64.664Z" fill="#DAA22C"/>
    <path d="M86.7231 108.664C86.8671 109.408 86.4347 110.068 86.2429 110.369C84.9945 112.241 83.7944 114.137 82.402 115.901C81.6458 116.862 80.4816 116.97 79.4135 116.286C78.4774 115.698 78.0813 114.245 78.7055 113.225C79.8817 111.305 81.0699 109.384 82.5101 107.668C82.9783 107.104 84.3105 106.84 85.0547 107.068C85.7627 107.272 86.2907 107.8 86.7231 108.664Z" fill="#CABA95"/>
    <path d="M39.4821 139.174C39.4821 140.194 39.0138 140.542 38.6537 140.938C37.3215 142.439 35.9533 143.903 34.525 145.307C33.2648 146.543 32.0526 146.567 30.9964 145.523C29.9042 144.455 29.9282 143.171 31.1524 141.863C32.4607 140.47 33.7329 139.006 35.2212 137.83C35.8813 137.314 37.1177 137.146 37.9577 137.362C38.5819 137.518 39.35 138.526 39.4821 139.174ZM63.9547 115.661C63.9547 116.586 63.3544 117.018 62.9584 117.462C61.6622 118.938 60.318 120.379 58.9616 121.795C57.8576 122.935 56.8254 123.007 55.6611 122.119C54.605 121.327 54.3529 120.235 55.3489 118.974C56.7652 117.186 58.3254 115.482 60.0297 113.957C60.5458 113.501 61.8061 113.525 62.5504 113.801C63.1506 114.053 63.8706 114.881 63.9547 115.661ZM204.417 136.905C205.473 136.846 206.085 137.41 206.578 137.866C207.97 139.162 209.314 140.53 210.598 141.946C211.678 143.135 211.739 144.287 210.958 145.307C210.07 146.447 208.63 146.64 207.441 145.523C205.869 144.059 204.357 142.511 203.037 140.83C202.581 140.254 202.521 139.078 202.761 138.322C202.953 137.71 203.553 137.194 204.417 136.905Z" fill="#CAB994"/>
    <path d="M180.22 113.285C181.565 113.285 182.081 114.053 182.717 114.689C184.001 115.962 185.202 117.354 186.306 118.794C187.338 120.126 187.146 121.135 185.921 122.167C184.901 123.019 183.857 122.935 182.765 121.807C181.361 120.367 180.005 118.878 178.66 117.378C177.952 116.598 177.712 115.625 178.3 114.737C178.708 114.137 179.152 113.489 180.22 113.285Z" fill="#CABA94"/>
    <path d="M64.1825 137.35C64.3268 136.846 64.4345 136.329 64.6148 135.849C65.1907 134.277 65.779 132.705 66.4032 131.156C66.9073 129.92 68.1194 129.332 69.3196 129.656C70.3996 129.956 71.3241 131.324 70.952 132.489C70.3039 134.529 69.5477 136.558 68.6475 138.502C68.1075 139.666 66.8711 140.122 65.7188 139.57C64.9869 139.222 64.1107 138.73 64.1825 137.35ZM177.352 137.398C177.484 138.454 176.716 139.234 175.984 139.582C174.903 140.086 173.655 139.69 173.139 138.586C172.191 136.558 171.363 134.457 170.727 132.321C170.403 131.229 171.111 130.22 172.155 129.764C173.151 129.332 174.363 129.464 174.844 130.448C175.924 132.657 176.908 135.453 177.352 137.398Z" fill="#CABA95"/>
    <path d="M103.058 47.7886C103.094 48.2449 102.962 49.0848 102.158 49.6492C101.522 50.0811 100.189 49.6851 99.8534 49.1331C98.6653 47.2007 97.7168 45.1123 96.8649 43C96.4928 42.0636 96.9008 40.9356 97.921 40.6234C98.7251 40.3833 100.202 40.3354 100.514 40.7913C101.894 42.892 102.782 45.5204 103.058 47.7886ZM144.898 42.7959C144.874 42.9159 144.838 43.312 144.694 43.6478C143.974 45.2563 143.266 46.8764 142.45 48.4491C141.717 49.853 140.421 50.3452 139.245 49.8291C137.996 49.2771 137.492 47.9329 138.153 46.4205C138.909 44.668 139.737 42.9518 140.661 41.2835C141.237 40.2512 142.269 39.9752 143.41 40.3593C144.43 40.6955 144.922 41.4517 144.898 42.7959Z" fill="#DAA22C"/>
    <path d="M148.09 185.575C148.102 183.931 148.655 183.042 149.891 182.742C151.211 182.418 152.279 183.006 152.651 184.219C153.263 186.223 153.756 188.287 154.02 190.364C154.164 191.48 153.515 192.524 152.207 192.776C150.863 193.028 149.867 192.38 149.483 191.192C148.871 189.235 148.486 187.207 148.09 185.575Z" fill="#CABA95"/>
    <path d="M202.473 108.892C204.021 109.444 206.145 110.044 208.114 110.969C209.182 111.461 209.794 112.565 209.158 113.873C208.57 115.109 207.586 115.434 206.302 115.05C204.477 114.498 202.617 114.041 200.841 113.393C199.628 112.949 199.04 111.929 199.388 110.621C199.724 109.384 200.66 108.868 202.473 108.892Z" fill="#DAA22C"/>
    <path d="M93.9362 186.451C93.5521 188.011 93.1441 190.076 92.496 192.068C92.064 193.364 90.7558 193.868 89.5796 193.496C88.5713 193.184 87.7912 191.912 88.007 190.724C88.3312 188.935 88.7153 187.159 89.1835 185.407C89.5553 184.002 90.7195 183.282 91.9799 183.486C93.168 183.667 93.9362 184.627 93.9362 186.451Z" fill="#CABA95"/>
    <path d="M154.848 69.705C154.92 71.8895 151.079 76.3422 149.519 76.6182C148.318 76.7382 147.514 76.258 147.178 75.6941C146.794 75.0579 146.746 73.8095 147.13 73.2216C148.198 71.6011 149.471 70.0771 150.875 68.7207C151.403 68.2166 152.603 68.0008 153.324 68.2166C154.032 68.4327 154.74 69.1167 154.848 69.705Z" fill="#DAA32D"/>
    <path d="M39.2659 108.88C41.1265 108.892 41.9904 109.469 42.3027 110.693C42.6026 111.881 42.0865 112.901 41.0304 113.285C38.9899 114.041 36.8896 114.689 34.7531 115.158C33.7209 115.385 32.8688 114.786 32.4727 113.645C32.0406 112.397 32.5807 111.425 33.5409 110.993C35.5693 110.092 37.7176 109.444 39.2659 108.88Z" fill="#DAA22D"/>
    <path d="M106.875 117.03C106.875 116.166 106.839 115.302 106.887 114.437C106.947 113.153 107.811 112.169 109.011 112.133C110.163 112.097 111.303 112.637 111.388 113.789C111.567 116.106 111.724 120.174 111.364 120.846C111.051 121.771 109.839 122.179 109.011 122.275C107.907 122.395 107.043 121.495 106.899 120.318C106.767 119.238 106.875 118.122 106.875 117.03Z" fill="#CABA95"/>
    <path d="M89.5916 67.9765C89.9274 68.1926 90.7076 68.5045 91.2237 69.0569C92.34 70.2331 93.3483 71.5054 94.3562 72.7773C95.2926 73.9659 95.2324 75.2258 94.2604 76.126C93.312 77.0023 91.92 77.0741 90.9117 76.0299C89.5916 74.6619 88.3312 73.1977 87.2631 71.6251C86.1946 70.005 87.299 68.0367 89.5916 67.9765Z" fill="#DAA22D"/>
    <path d="M134.9 116.418C134.9 117.606 134.996 118.794 134.876 119.97C134.72 121.459 133.676 122.395 132.488 122.371C131.287 122.335 130.327 121.35 130.207 119.886C130.075 118.278 129.931 116.646 130.015 115.038C130.135 112.637 132.043 111.389 133.736 112.577C134.276 112.949 134.612 113.753 134.804 114.437C134.972 115.038 134.876 116.418 134.9 116.418Z" fill="#CBBA95"/>
    <path d="M123.534 126.944C123.546 128.768 122.526 129.884 120.929 129.92C119.261 129.956 118.181 128.84 118.181 126.944C118.181 125.419 118.289 123.883 118.397 122.359C118.493 121.098 119.489 120.355 120.929 120.378C122.274 120.402 123.006 120.931 123.354 121.843C123.558 122.371 123.546 123.595 123.546 124.051C123.57 124.759 123.522 125.887 123.534 126.944Z" fill="#CABA95"/>
    <path d="M118.397 186.739C118.397 186.019 118.385 185.299 118.397 184.579C118.445 182.898 119.297 182.01 120.821 181.998C122.358 181.986 123.234 182.874 123.306 184.519C123.366 186.007 123.438 187.483 123.486 188.971C123.534 190.592 122.418 191.816 120.905 191.84C119.345 191.864 118.409 190.904 118.373 189.187C118.349 188.371 118.373 187.555 118.373 186.739H118.397Z" fill="#CAB994"/>
    <path d="M109.947 67.8085C111.003 67.8085 111.616 68.5887 112.108 69.2248C113.068 70.4732 113.86 71.8412 114.712 73.1734C115.492 74.4098 115.384 75.598 114.436 76.414C113.464 77.2543 111.975 77.3022 111.088 76.1743C109.839 74.5657 108.663 72.8256 107.799 70.9893C107.055 69.429 108.051 68.1085 109.947 67.8085ZM131.672 67.7846C133.472 67.7244 134.636 69.4769 133.784 71.2773C132.992 72.9456 131.948 74.5179 130.831 76.006C129.907 77.2184 128.419 77.3385 127.386 76.534C126.306 75.706 126.186 74.4337 127.063 73.0776C127.891 71.7934 128.647 70.4489 129.583 69.2488C130.087 68.5887 130.771 67.8684 131.672 67.7846Z" fill="#DAA22C"/>
    <path d="M168.902 59.1429C166.706 59.1668 165.566 57.5706 166.238 56.0103C166.91 54.4381 167.69 52.8898 168.53 51.3894C169.275 50.0452 170.643 49.6492 171.819 50.2734C172.911 50.8493 173.343 52.1575 172.779 53.514C172.203 54.8701 171.639 56.2744 170.835 57.4984C170.319 58.3029 169.779 58.951 168.902 59.1429Z" fill="#DAA32D"/>
    <path d="M89.0874 51.7734C88.9434 52.3135 88.403 53.0457 87.7912 53.2619C87.0469 53.514 85.7746 53.5259 85.2944 53.0577C83.8303 51.6294 82.4981 50.0213 81.4181 48.2927C81.0579 47.7048 81.3578 46.4086 81.7898 45.6883C82.3182 44.7881 83.6145 44.536 84.3224 45.2683C86.0028 46.9845 87.5391 48.605 88.8354 50.6331C89.0515 50.9694 89.1114 51.3415 89.0874 51.7734Z" fill="#DAA22D"/>
    <path d="M160.357 47.0926C160.225 48.7131 156.816 53.4777 155.424 53.514C154.668 53.5379 153.659 53.1778 153.192 52.6377C152.771 52.1456 152.603 50.9215 152.939 50.4174C154.092 48.6768 155.412 46.9965 156.9 45.5323C157.38 45.0641 158.629 45.1243 159.397 45.3042C160.033 45.4482 160.429 46.4565 160.357 47.0926ZM75.3568 57.7505C75.3568 57.7505 74.9488 58.7109 74.3007 58.9147C73.5206 59.1548 72.068 59.0108 71.7441 58.5067C70.5317 56.6106 69.5477 54.5342 68.7556 52.4216C68.5634 51.9294 69.3076 50.7293 69.9078 50.3934C70.5197 50.0572 71.948 50.0811 72.2363 50.4892C73.2203 51.8935 74.7686 55.014 75.4406 56.4786C75.729 57.0785 75.3568 57.7505 75.3568 57.7505Z" fill="#DAA32D"/>
    <path d="M186.45 55.7104C186.69 56.4423 186.606 57.7146 186.114 58.1709C184.625 59.5509 182.933 60.7633 181.193 61.8315C180.293 62.3835 179.2 62.1194 178.48 61.2073C177.784 60.331 177.616 59.1548 178.396 58.4469C180.017 56.9943 181.673 55.8181 183.485 54.606C183.893 54.33 184.518 54.3659 184.733 54.4142C185.202 54.462 186.234 55.0623 186.45 55.7104ZM56.9813 54.1621C57.8815 54.1621 58.3856 54.5581 58.7937 54.8341C60.1258 55.7583 61.458 56.6944 62.7183 57.7266C63.8945 58.6989 64.0628 60.1272 63.2703 61.1594C62.5145 62.1434 61.1461 62.3715 59.91 61.5555C58.5177 60.6313 57.1732 59.635 55.8889 58.5669C55.025 57.8466 54.5568 56.7905 55.1929 55.7583C55.6009 55.0742 56.2973 54.4022 56.9813 54.1621ZM132.608 40.0594C132.608 40.4072 132.535 40.8156 132.32 41.1514C131.455 42.5318 130.891 44.0801 130.075 45.4844C129.319 46.7927 127.927 47.1887 126.751 46.5526C125.646 45.9643 125.226 44.68 125.85 43.312C126.546 41.7996 127.315 40.2995 128.191 38.8712C128.815 37.839 129.943 37.3229 131.047 37.851C131.791 38.2111 132.295 38.7751 132.608 40.0594ZM115.336 44.4762C115.456 45.2922 115.36 46.2283 114.664 46.6244C113.692 47.1887 112.564 46.8525 111.988 45.9403C110.956 44.284 110.031 42.5438 109.263 40.7554C108.843 39.7953 109.131 38.5949 110.163 38.1509C110.883 37.839 112.156 37.7309 112.648 38.1509C114.604 39.7714 114.796 41.8355 115.336 44.4762Z" fill="#DAA22C"/>
    <path d="M46.1432 104.848C44.7631 104.859 43.7549 104.175 43.5507 102.999C43.3349 101.775 44.0907 100.611 45.519 100.25C46.8635 99.9027 48.2315 99.5545 49.5999 99.5186C50.4882 99.4946 51.5563 99.7946 52.2403 100.323C53.6446 101.427 53.0085 103.719 51.1961 104.14C49.576 104.511 47.8957 104.619 46.1432 104.848ZM195.548 104.848C193.891 104.631 192.223 104.487 190.59 104.152C189.474 103.923 188.718 103.107 188.754 101.883C188.79 100.695 189.474 99.6506 190.627 99.7104C192.775 99.8185 194.959 100.131 197.048 100.659C198.068 100.923 198.392 102.099 198.104 103.203C197.816 104.272 196.88 104.848 195.548 104.848Z" fill="#DAA32D"/>
    <path d="M123.306 100.671C123.306 101.439 123.354 102.207 123.294 102.963C123.174 104.536 122.25 105.412 120.833 105.412C119.441 105.412 118.493 104.499 118.409 102.927C118.337 101.403 118.337 99.8668 118.385 98.3304C118.433 96.9381 119.381 96.146 120.857 96.146C122.321 96.146 123.234 96.95 123.306 98.3663C123.342 99.1345 123.318 99.9027 123.318 100.659C123.318 100.671 123.318 100.671 123.306 100.671Z" fill="#CAB994"/>
    <path d="M105.422 144.275C105.71 142.907 105.963 141.31 106.394 139.75C106.803 138.298 108.051 137.65 109.407 137.986C110.572 138.274 111.279 139.522 111.015 140.938C110.727 142.439 110.44 143.939 110.019 145.403C109.635 146.76 108.411 147.468 107.151 147.156C105.795 146.819 105.434 145.763 105.422 144.275Z" fill="#CABA95"/>
    <path d="M123.342 60.1511C123.342 60.8232 123.366 61.4952 123.342 62.1673C123.282 63.6318 122.286 64.6278 120.893 64.6401C119.501 64.664 118.433 63.6677 118.385 62.2395C118.337 60.8471 118.337 59.4548 118.385 58.0628C118.433 56.5863 119.441 55.6023 120.833 55.5784C122.238 55.566 123.258 56.5264 123.354 57.9906C123.378 58.7109 123.342 59.4308 123.342 60.1511Z" fill="#DAA22B"/>
    <path d="M136.328 144.263C136.232 145.931 135.8 146.928 134.504 147.156C133.232 147.383 132.163 146.892 131.779 145.607C131.299 143.963 130.867 142.295 130.651 140.602C130.519 139.498 130.939 138.394 132.224 138.01C133.496 137.626 134.66 138.118 135.104 139.45C135.668 141.166 136.004 142.943 136.328 144.263Z" fill="#CABA94"/>
    <path d="M123.618 217.333C123.654 218.929 122.97 220.045 121.517 220.249C119.465 220.525 118.289 219.601 118.241 217.489C118.205 216.156 118.301 214.812 118.493 213.492C118.685 212.208 119.669 211.692 120.869 211.632C122.13 211.56 123.198 212.388 123.342 213.564C123.486 214.656 123.51 215.748 123.618 217.333ZM53.7407 187.759C51.9044 187.699 50.7282 186.103 51.4123 184.591C52.1445 182.946 53.1524 181.41 54.1607 179.91C54.7729 178.997 55.7932 178.997 56.7173 179.381C57.8935 179.874 58.2776 180.918 58.1096 181.59C57.6534 183.354 56.1772 185.731 54.8447 187.303C54.5209 187.591 53.9808 187.663 53.7407 187.759Z" fill="#CBBA95"/>
    <path d="M186.426 179.154C187.182 179.31 187.47 179.73 187.902 180.33C188.73 181.494 189.426 182.754 190.086 184.026C190.771 185.323 190.446 186.739 189.438 187.351C188.286 188.047 186.882 187.783 186.053 186.523C185.165 185.167 184.289 183.774 183.689 182.286C183.029 180.654 184.205 179.141 186.426 179.154Z" fill="#CABA95"/>
    <path d="M162.193 73.4374C160.177 73.4857 158.952 71.7451 159.805 70.125C160.585 68.6246 161.677 67.2446 162.817 65.9722C163.585 65.1199 164.738 65.0721 165.71 65.7561C166.67 66.4281 167.15 67.4723 166.514 68.5165C165.578 70.0648 164.462 71.5054 163.333 72.9094C163.057 73.2575 162.421 73.3417 162.193 73.4374ZM77.3371 65.36C79.3896 65.372 82.702 69.981 82.0299 71.9134C81.4899 73.4737 79.4494 74.0616 78.2852 72.8136C77.097 71.5293 76.0409 70.0648 75.2129 68.5165C74.3964 67.0164 75.6328 65.3481 77.3371 65.36ZM194.095 88.7885C194.383 90.6487 192.607 92.053 190.915 91.5728C189.546 91.1891 188.202 90.685 186.894 90.1207C185.574 89.5447 185.07 88.3805 185.478 87.2163C185.886 86.0281 186.978 85.368 188.358 85.7278C189.822 86.1119 191.287 86.628 192.643 87.2881C193.315 87.6362 193.939 88.2365 194.095 88.7885Z" fill="#DAA32E"/>
    <path d="M56.5733 88.4403C56.3571 89.4606 55.4689 89.7246 54.6768 90.1569C53.4767 90.8051 52.1322 91.2131 50.812 91.5852C49.4799 91.9693 48.1956 91.2849 47.7756 90.1207C47.3074 88.7765 47.9435 87.8162 49.0479 87.3004C50.4642 86.64 51.9523 86.0999 53.4767 85.7398C55.0489 85.3557 56.537 86.4242 56.5733 88.4403ZM191.455 74.8059C192.451 74.9618 193.783 75.2621 195.079 75.6941C196.484 76.1623 197.072 77.3022 196.712 78.5985C196.328 79.9549 195.199 80.327 194.023 80.219C192.655 80.0869 191.311 79.7388 189.99 79.3547C188.754 78.9945 188.07 77.8183 188.274 76.7143C188.49 75.5019 189.786 74.6978 191.455 74.8059Z" fill="#DAA32D"/>
    <path d="M50.4279 74.746C52.2403 74.7699 53.2366 75.5501 53.4165 76.8463C53.5848 78.0704 52.7444 79.1508 51.3042 79.4747C50.1878 79.7268 49.0719 80.0028 47.9316 80.1707C46.4674 80.3988 45.2669 79.6789 44.967 78.5027C44.6311 77.2065 45.3391 76.0179 46.8275 75.586C48.1115 75.2258 49.432 74.9738 50.4279 74.746Z" fill="#DAA22C"/>
    <path d="M138.489 101.715C138.321 101.655 137.673 101.631 137.373 101.295C136.328 100.143 135.284 98.9423 134.468 97.6341C133.916 96.7578 134.264 95.7499 135.08 95.0536C135.944 94.3217 137.048 94.1534 137.84 94.8976C139.017 95.99 140.157 97.2141 140.949 98.5825C141.801 100.071 140.577 101.703 138.489 101.715ZM103.226 101.715C100.934 101.691 99.8534 99.7946 100.933 98.1502C101.666 97.0462 102.578 96.0379 103.526 95.1138C104.414 94.2495 105.543 94.2016 106.538 94.9698C107.535 95.7499 107.799 96.8659 107.127 97.9101C106.359 99.0986 105.411 100.191 104.426 101.223C104.09 101.583 103.418 101.643 103.226 101.715Z" fill="#CBBA95"/>
    <path d="M101.906 62.9355C101.906 63.9797 101.114 64.6401 100.417 64.832C99.6612 65.0601 98.4012 64.8439 97.8608 64.3159C96.9367 63.4037 96.1928 62.1796 95.7968 60.9433C95.5686 60.211 95.8925 58.9147 96.4449 58.4229C96.9969 57.9427 98.4012 57.7748 99.0131 58.1466C100.681 59.1429 101.642 61.0274 101.906 62.9355ZM146.002 59.9832C145.966 60.7993 144.91 63.6678 143.313 64.7239C142.737 65.108 141.417 65.0119 140.853 64.5919C140.277 64.1719 139.785 62.9116 140.013 62.2754C140.505 60.8834 141.321 59.515 142.317 58.4106C142.749 57.9308 144.058 57.8107 144.766 58.0987C145.714 58.4828 145.954 59.3351 146.002 59.9832Z" fill="#DAA22C"/>
    <path d="M111.567 87.3363C110.151 87.2641 109.239 86.4481 109.239 85.3078C109.239 84.1436 110.247 83.3036 111.76 83.3634C114.676 83.4715 117.581 83.7236 120.497 83.7595C123.03 83.7954 125.562 83.6155 128.083 83.5074C128.851 83.4835 129.607 83.3515 130.375 83.3634C131.611 83.3874 132.5 84.2157 132.5 85.248C132.5 86.352 131.647 87.2522 130.363 87.3363C128.263 87.4683 126.162 87.5521 124.05 87.6243C122.946 87.6602 121.854 87.6362 120.749 87.6362C119.861 87.6362 114.736 87.5042 111.567 87.3363Z" fill="#050505"/>
</svg>
